<svg width="11" height="12" viewBox="0 0 11 12" fill="none" xmlns="http://www.w3.org/2000/svg">
<path d="M0.921358 11.7668C1.03594 11.8159 1.16459 11.8383 1.2935 11.8318C1.42241 11.8252 1.54672 11.7898 1.65307 11.7295L10.8614 6.47948C10.9555 6.42579 11.0324 6.35413 11.0855 6.27062C11.1386 6.18711 11.1663 6.09424 11.1663 5.99998C11.1663 5.90571 11.1386 5.81284 11.0855 5.72933C11.0324 5.64583 10.9555 5.57416 10.8614 5.52048L1.65307 0.270475C1.54692 0.20949 1.42247 0.173676 1.2933 0.166937C1.16413 0.160197 1.03519 0.182791 0.920545 0.232256C0.805896 0.281721 0.709939 0.356157 0.643133 0.44745C0.576328 0.538742 0.541239 0.643387 0.541691 0.749975V11.25C0.54167 11.3565 0.577039 11.4609 0.643966 11.552C0.710892 11.6431 0.806822 11.7174 0.921358 11.7668ZM1.95836 1.86356L9.21382 5.99998L1.95836 10.1364V1.86356Z" fill="#292929"/>
</svg>
